<svg height="100%" width="100%" id="bg-svg" viewBox="0 0 1440 400" xmlns="http://www.w3.org/2000/svg" class="transition duration-300 ease-in-out delay-150"><path d="M 0,400 C 0,400 0,80 0,80 C 70.72864506627391,64.97717231222386 141.45729013254783,49.954344624447714 191,59 C 240.54270986745217,68.04565537555229 268.8994845360825,101.15979381443299 326,101 C 383.1005154639175,100.84020618556701 468.94477172312213,67.40648011782032 546,61 C 623.0552282768779,54.59351988217968 691.3214285714287,75.21428571428572 748,77 C 804.6785714285713,78.78571428571428 849.7695139911633,61.73637702503681 911,61 C 972.2304860088367,60.26362297496319 1049.6005154639176,75.84020618556701 1105,77 C 1160.3994845360824,78.15979381443299 1193.8284241531665,64.90279823269515 1246,63 C 1298.1715758468335,61.09720176730485 1369.0857879234168,70.54860088365243 1440,80 C 1440,80 1440,400 1440,400 Z" stroke="none" stroke-width="0" fill="#fcf3cf44" class="transition-all duration-300 ease-in-out delay-150"></path><path d="M 0,400 C 0,400 0,160 0,160 C 75.2744845360825,164.64212076583212 150.548969072165,169.28424153166424 205,167 C 259.451030927835,164.71575846833576 293.0786082474226,155.50515463917523 349,161 C 404.9213917525774,166.49484536082477 483.1365979381443,186.69513991163475 538,182 C 592.8634020618557,177.30486008836525 624.375,147.71428571428572 689,141 C 753.625,134.28571428571428 851.3634020618557,150.44771723122236 921,161 C 990.6365979381443,171.55228276877764 1032.1713917525774,176.49484536082477 1086,167 C 1139.8286082474226,157.50515463917523 1205.951030927835,133.57290132547865 1267,130 C 1328.048969072165,126.42709867452136 1384.0244845360826,143.21354933726067 1440,160 C 1440,160 1440,400 1440,400 Z" stroke="none" stroke-width="0" fill="#fcf3cf66" class="transition-all duration-300 ease-in-out delay-150"></path><path d="M 0,400 C 0,400 0,240 0,240 C 43.710419734904264,247.12168630338732 87.42083946980853,254.24337260677467 153,252 C 218.57916053019147,249.75662739322533 306.0270618556701,238.14819587628867 380,228 C 453.9729381443299,217.85180412371133 514.470913107511,209.16384388807072 562,211 C 609.529086892489,212.83615611192928 644.0892857142857,225.19642857142856 693,231 C 741.9107142857143,236.80357142857144 805.1719440353461,236.05044182621498 878,231 C 950.8280559646539,225.94955817378502 1033.2229381443299,216.6018041237114 1098,216 C 1162.7770618556701,215.3981958762886 1209.9363033873344,223.5423416789396 1264,229 C 1318.0636966126656,234.4576583210604 1379.031848306333,237.2288291605302 1440,240 C 1440,240 1440,400 1440,400 Z" stroke="none" stroke-width="0" fill="#fcf3cf88" class="transition-all duration-300 ease-in-out delay-150"></path><path d="M 0,400 C 0,400 0,320 0,320 C 68.24558173784979,326.4081369661267 136.49116347569958,332.8162739322533 203,336 C 269.5088365243004,339.1837260677467 334.28092783505156,339.14304123711344 382,328 C 429.71907216494844,316.85695876288656 460.38512518409425,294.61156111929307 518,291 C 575.6148748159058,287.38843888070693 660.1785714285714,302.4107142857143 724,315 C 787.8214285714286,327.5892857142857 830.9005891016201,337.7455817378497 886,335 C 941.0994108983799,332.2544182621503 1008.2190721649483,316.6069587628866 1075,311 C 1141.7809278350517,305.3930412371134 1208.223122238586,309.82658321060387 1269,313 C 1329.776877761414,316.17341678939613 1384.8884388807069,318.08670839469806 1440,320 C 1440,320 1440,400 1440,400 Z" stroke="none" stroke-width="0" fill="#fcf3cfff" class="transition-all duration-300 ease-in-out delay-150"></path></svg>